PathFileType	4	(X/Y/Z)	/Users/itak/Documents/Research/Walk-IL/dataset/trc/00013_00004.trc
DataRate	CameraRate	NumFrames	NumMarkers	Units	OrigDataRate	OrigDataStartFrame	OrigNumFrames
100.000000	100.000000	4	55	mm	100.000000	212	566
Frame#	Time	RPSI			LPSI			L3			STRN			T10			C7			CLAV			RBAK			LBAK			LSHO			LUPA			LAEL			LAOL			LWTS			LWPS			LFRA			LIFD			LHTS			RSHO			RUPA			RAEL			RAOL			RWTS			RWPS			RFRA			RIFD			RHTS			RHPS			RBHD			LFHD			RFHD			LBHD			LHIP			RHIP			RASI			LASI			LKNE			LTHI			LANK			LTIP			LTOE			LMT1			LMT5			LHEE			RKNE			RTHI			RANK			RTIP			RTOE			RMT1			RMT5			RHEE			LHPS			*53			*54			
		X1	Y1	Z1	X2	Y2	Z2	X3	Y3	Z3	X4	Y4	Z4	X5	Y5	Z5	X6	Y6	Z6	X7	Y7	Z7	X8	Y8	Z8	X9	Y9	Z9	X10	Y10	Z10	X11	Y11	Z11	X12	Y12	Z12	X13	Y13	Z13	X14	Y14	Z14	X15	Y15	Z15	X16	Y16	Z16	X17	Y17	Z17	X18	Y18	Z18	X19	Y19	Z19	X20	Y20	Z20	X21	Y21	Z21	X22	Y22	Z22	X23	Y23	Z23	X24	Y24	Z24	X25	Y25	Z25	X26	Y26	Z26	X27	Y27	Z27	X28	Y28	Z28	X29	Y29	Z29	X30	Y30	Z30	X31	Y31	Z31	X32	Y32	Z32	X33	Y33	Z33	X34	Y34	Z34	X35	Y35	Z35	X36	Y36	Z36	X37	Y37	Z37	X38	Y38	Z38	X39	Y39	Z39	X40	Y40	Z40	X41	Y41	Z41	X42	Y42	Z42	X43	Y43	Z43	X44	Y44	Z44	X45	Y45	Z45	X46	Y46	Z46	X47	Y47	Z47	X48	Y48	Z48	X49	Y49	Z49	X50	Y50	Z50	X51	Y51	Z51	X52	Y52	Z52	X53	Y53	Z53	X54	Y54	Z54	X55	Y55	Z55	

213	2.12	463.9278564453125	1039.530517578125	-256.5638427734375	429.3903503417969	1037.483032226562	-415.0843200683594	444.6073608398438	1108.71142578125	-347.5601196289062	680.0258178710938	1294.96240234375	-374.4155883789062	430.03125	1252.931762695312	-361.1356201171875	484.0173034667969	1518.54443359375	-382.8058471679688	640.7200317382812	1422.42041015625	-378.5720520019531	431.7705688476562	1384.879272460938	-297.1804809570312	463.7041931152344	1475.380615234375	-479.7801513671875	565.864501953125	1478.306762695312	-555.230712890625	536.2106323242188	1354.16162109375	-633.74755859375	548.603271484375	1137.206787109375	-665.4017333984375	489.9126586914062	1117.863647460938	-579.7005004882812	672.625	904.1353759765625	-601.4112548828125	603.2505493164062	875.76513671875	-649.1033935546875	578.323974609375	1024.287475585938	-669.9603881835938	732.5205078125	728.4310913085938	-580.634521484375	712.1560668945312	817.1358642578125	-613.079833984375	567.4821166992188	1505.0908203125	-209.4886322021484	551.5145263671875	1436.659790039062	-135.5223693847656	490.2309265136719	1176.375122070312	-99.66520690917969	487.6273803710938	1143.4033203125	-194.5255279541016	602.6508178710938	909.6340942382812	-116.1040267944336	536.4918823242188	900.234375	-53.00938034057617	497.8599243164062	1100.3740234375	-79.85032653808594	620.1375732421875	723.3380737304688	-120.0236587524414	633.0865478515625	800.91162109375	-95.54412841796875	575.1248168945312	798.6345825195312	-48.51198577880859	527.0982666015625	1687.508911132812	-308.0188903808594	700.9281616210938	1723.657470703125	-423.8532409667969	697.3218994140625	1724.819458007812	-324.9715881347656	523.111328125	1689.067626953125	-452.4059448242188	497.559814453125	938.745361328125	-538.063232421875	602.0213623046875	942.2927856445312	-178.7198181152344	680.762451171875	972.8025512695312	-272.9002990722656	627.9520874023438	983.4859008789062	-502.0115051269531	582.235595703125	492.8348999023438	-513.1238403320312	543.048095703125	631.6829223632812	-538.8465576171875	368.0986633300781	39.6329231262207	-465.8731384277344	451.66748046875	270.6819458007812	-502.7128601074219	586.8243408203125	33.52566146850586	-395.9682922363281	526.7433471679688	44.10007476806641	-383.1241760253906	493.8252563476562	31.08114242553711	-484.9707641601562	299.2850952148438	59.67778778076172	-413.5753784179688	756.8667602539062	541.565673828125	-209.3716888427734	665.8008422851562	794.0472412109375	-179.0045623779297	759.6051635742188	42.44436264038086	-202.2840881347656	765.4183349609375	414.5422058105469	-199.8046112060547	987.07080078125	82.30902862548828	-246.2632904052734	922.0949096679688	75.2158203125	-275.7112731933594	907.6100463867188	61.92688369750977	-180.6716918945312	704.3483276367188	33.50343322753906	-246.7925720214844	652.0159912109375	794.0891723632812	-645.1535034179688	nan	nan	nan	nan	nan	nan	
214	2.13	456.9776611328125	1041.335083007812	-257.5327453613281	422.5199584960938	1039.038940429688	-416.083251953125	437.6642150878906	1110.38330078125	-348.6333923339844	673.0735473632812	1296.798461914062	-375.2589416503906	422.9784240722656	1254.588989257812	-362.2206420898438	476.8825988769531	1520.213989257812	-383.7040710449219	633.6495971679688	1424.21142578125	-379.4078063964844	424.7993469238281	1386.549194335938	-298.1354675292969	456.6587524414062	1477.108276367188	-480.6941528320312	558.845458984375	1480.184814453125	-556.0753784179688	529.1756591796875	1356.11083984375	-634.7589721679688	541.3173828125	1139.24169921875	-666.4440307617188	482.8057250976562	1119.841918945312	-580.58837890625	665.3392333984375	906.0029907226562	-603.026611328125	595.7943115234375	877.7139892578125	-650.5360107421875	570.9422607421875	1026.313720703125	-671.2037963867188	725.2529907226562	730.2462768554688	-582.7391357421875	704.7386474609375	818.9439086914062	-614.8911743164062	560.292724609375	1506.827514648438	-210.3867340087891	544.28369140625	1438.4052734375	-136.4539642333984	482.5734252929688	1178.268920898438	-100.8401184082031	479.9745178222656	1145.39990234375	-195.7345123291016	592.8789672851562	910.6310424804688	-117.1528778076172	526.6998901367188	901.903076171875	-53.98646545410156	489.7786865234375	1102.338256835938	-81.04381561279297	608.2544555664062	724.064697265625	-121.3170623779297	622.1400146484375	801.529541015625	-96.70046997070312	564.2406005859375	799.8942260742188	-49.57973861694336	520.0040283203125	1689.288452148438	-308.9599609375	693.7744140625	1725.328979492188	-425.0989685058594	690.1990356445312	1726.614013671875	-326.1050720214844	515.8804321289062	1690.681396484375	-453.34716796875	490.7930297851562	940.0782470703125	-538.8244018554688	595.1029052734375	944.27978515625	-179.5306396484375	673.8292236328125	974.7312622070312	-273.6806945800781	621.1199951171875	985.0570678710938	-502.8109130859375	576.5867309570312	494.50341796875	-512.68359375	537.1609497070312	633.0266723632812	-538.6738891601562	367.8707275390625	38.98554229736328	-465.6456909179688	448.4089965820312	271.2193298339844	-502.2682189941406	586.82958984375	33.58793258666992	-396.0733337402344	526.6914672851562	44.07774353027344	-383.1514587402344	493.7431335449219	31.07000541687012	-484.9772033691406	299.0976867675781	58.44322967529297	-413.148681640625	750.264404296875	543.0713500976562	-209.9111633300781	659.0711669921875	795.8863525390625	-180.0088500976562	739.6755981445312	43.25750732421875	-201.8938140869141	756.292724609375	415.3093872070312	-200.2206878662109	967.658935546875	78.25762176513672	-247.041259765625	902.4746704101562	72.45681762695312	-276.2166137695312	888.1254272460938	59.5916862487793	-180.9542541503906	684.0702514648438	35.41812133789062	-246.1467590332031	644.4959106445312	796.0369873046875	-646.8858032226562	nan	nan	nan	nan	nan	nan	
215	2.14	450.1295166015625	1043.128540039062	-258.3745422363281	415.7325439453125	1040.561889648438	-416.9281005859375	430.7642517089844	1112.02880859375	-349.5737609863281	666.1735229492188	1298.620971679688	-376.0502014160156	415.9946899414062	1256.218383789062	-363.1921691894531	469.7792663574219	1521.857299804688	-384.5351867675781	626.6277465820312	1425.993041992188	-380.1902465820312	417.8699035644531	1388.180419921875	-299.0091552734375	449.640869140625	1478.798950195312	-481.5331115722656	551.8569946289062	1482.053588867188	-556.8470458984375	522.174560546875	1358.06494140625	-635.7118530273438	533.993408203125	1141.270385742188	-667.4192504882812	475.6546630859375	1121.838012695312	-581.4129638671875	657.9947509765625	907.8700561523438	-604.5509643554688	588.2705078125	879.6535034179688	-651.8631591796875	563.5088500976562	1028.329467773438	-672.3720092773438	717.8997192382812	732.0692749023438	-584.6890869140625	697.255859375	820.737548828125	-616.5904541015625	553.1596069335938	1508.564575195312	-211.2254333496094	537.1415405273438	1440.151245117188	-137.3190460205078	475.0918273925781	1180.135009765625	-101.9588165283203	472.5318603515625	1147.356811523438	-196.8909912109375	583.4185791015625	911.666259765625	-118.097785949707	517.1834106445312	903.5859985351562	-54.90460586547852	481.8693237304688	1104.283081054688	-82.18836975097656	596.680908203125	724.830322265625	-122.5282135009766	611.5167846679688	802.197265625	-97.73741912841797	553.68212890625	801.1985473632812	-50.55508804321289	512.931884765625	1691.062866210938	-309.8152465820312	686.653564453125	1726.976196289062	-426.2492370605469	683.0994873046875	1728.37939453125	-327.1416931152344	508.6717529296875	1692.300659179688	-454.203369140625	484.1162414550781	941.4025268554688	-539.453857421875	588.2805786132812	946.2276000976562	-180.2580108642578	666.96728515625	976.6448974609375	-274.3992309570312	614.3192749023438	986.5934448242188	-503.53173828125	570.957275390625	496.1482849121094	-512.2371826171875	531.2734985351562	634.3728637695312	-538.4546508789062	367.6676025390625	38.40867614746094	-465.4833984375	445.1824951171875	271.7876892089844	-501.8537292480469	586.8236694335938	33.66460418701172	-396.177978515625	526.6455078125	44.08592987060547	-383.1934814453125	493.6697998046875	31.05904006958008	-484.9945983886719	298.9237670898438	57.29241561889648	-412.8196105957031	743.3911743164062	544.4769287109375	-210.4116516113281	652.4008178710938	797.6350708007812	-180.884521484375	719.11767578125	44.25849151611328	-201.4730224609375	746.786376953125	415.9871215820312	-200.5402221679688	947.5390014648438	74.41581726074219	-247.5624694824219	882.2113037109375	69.92562866210938	-276.5421447753906	867.9019165039062	57.41928482055664	-181.0731048583984	663.2159423828125	37.56057739257812	-245.5122680664062	636.8660278320312	797.951416015625	-648.501953125	nan	nan	nan	nan	nan	nan	
216	2.15	443.3545532226562	1044.896484375	-259.1026916503906	409.0321350097656	1042.037231445312	-417.6325988769531	423.9188232421875	1113.626098632812	-350.3937683105469	659.3151245117188	1300.402465820312	-376.791015625	409.0890197753906	1257.801513671875	-364.0492858886719	462.7084350585938	1523.456298828125	-385.2957458496094	619.6527709960938	1427.73779296875	-380.9231567382812	410.9685668945312	1389.759399414062	-299.8023681640625	442.6455993652344	1480.431396484375	-482.2941589355469	544.8936767578125	1483.878173828125	-557.548095703125	515.19140625	1359.982788085938	-636.5986938476562	526.6378784179688	1143.255615234375	-668.33984375	468.47021484375	1123.813232421875	-582.2034301757812	650.600341796875	909.7083129882812	-605.9759521484375	580.7028198242188	881.5529174804688	-653.1026611328125	556.0397338867188	1030.300170898438	-673.4756469726562	710.4591674804688	733.86328125	-586.4547729492188	689.72705078125	822.5029296875	-618.163818359375	546.0953979492188	1510.271850585938	-212.0000152587891	530.0906982421875	1441.868896484375	-138.1145629882812	467.7637329101562	1181.947387695312	-103.0110321044922	465.2621154785156	1149.246704101562	-197.9786834716797	574.27685546875	912.7241821289062	-118.9445495605469	507.949951171875	905.2510375976562	-55.7702522277832	474.1230773925781	1106.175048828125	-83.26880645751953	585.464599609375	725.622802734375	-123.6660995483398	601.260498046875	802.9156494140625	-98.65606689453125	543.4797973632812	802.5216064453125	-51.44680023193359	505.8872680664062	1692.812377929688	-310.5883178710938	679.5578002929688	1728.583618164062	-427.2955627441406	676.0223999023438	1730.097900390625	-328.086181640625	501.4835815429688	1693.902099609375	-454.9774780273438	477.5416259765625	942.7036743164062	-539.9586791992188	581.5303344726562	948.11572265625	-180.9033813476562	660.166259765625	978.5126342773438	-275.0476379394531	607.5575561523438	988.074951171875	-504.1736145019531	565.3643188476562	497.7554016113281	-511.7711791992188	525.3323974609375	635.7130126953125	-538.1989135742188	367.4919128417969	37.9019889831543	-465.3794860839844	442.0006103515625	272.3684387207031	-501.4588623046875	586.8035278320312	33.74914932250977	-396.2763977050781	526.6058349609375	44.11598587036133	-383.2430419921875	493.6054077148438	31.0510368347168	-485.0192260742188	298.7623901367188	56.21001815795898	-412.5799865722656	736.2294311523438	545.742919921875	-210.8613891601562	645.767578125	799.2911987304688	-181.6304626464844	697.9542236328125	45.47335433959961	-201.0689392089844	736.8528442382812	416.5665893554688	-200.7538909912109	926.778564453125	70.81797790527344	-247.6725158691406	861.3965454101562	67.65065002441406	-276.5910949707031	846.9588623046875	55.43632888793945	-180.9629821777344	641.8485717773438	39.95780944824219	-244.9803924560547	629.156005859375	799.8003540039062	-650.005859375	nan	nan	nan	nan	nan	nan	
